<mxfile host="Electron" agent="Mozilla/5.0 (Windows NT 10.0; Win64; x64) AppleWebKit/537.36 (KHTML, like Gecko) draw.io/26.0.4 Chrome/128.0.6613.186 Electron/32.2.5 Safari/537.36" version="26.0.4">
  <diagram name="Page-1" id="6bj1PxHNFQrvFWdxEmIq">
    <mxGraphModel dx="610" dy="456" grid="1" gridSize="10" guides="1" tooltips="1" connect="1" arrows="1" fold="1" page="1" pageScale="1" pageWidth="827" pageHeight="1169" math="0" shadow="0">
      <root>
        <mxCell id="0" />
        <mxCell id="1" parent="0" />
        <mxCell id="WGWrT0Vk8PtkWykexaRk-1" value="Problemstilling" style="rounded=0;whiteSpace=wrap;html=1;fontColor=#808080;strokeColor=#808080;" vertex="1" parent="1">
          <mxGeometry x="160" y="280" width="120" height="40" as="geometry" />
        </mxCell>
        <mxCell id="WGWrT0Vk8PtkWykexaRk-2" value="Teoretiske antakelser" style="rounded=0;whiteSpace=wrap;html=1;fontColor=#808080;strokeColor=#808080;" vertex="1" parent="1">
          <mxGeometry x="160" y="330" width="120" height="40" as="geometry" />
        </mxCell>
        <mxCell id="WGWrT0Vk8PtkWykexaRk-3" value="Analyseenheter" style="rounded=0;whiteSpace=wrap;html=1;fontColor=#808080;strokeColor=#808080;" vertex="1" parent="1">
          <mxGeometry x="160" y="380" width="120" height="40" as="geometry" />
        </mxCell>
        <mxCell id="WGWrT0Vk8PtkWykexaRk-4" value="Logisk link data og antakelser" style="rounded=0;whiteSpace=wrap;html=1;fontColor=#808080;strokeColor=#808080;" vertex="1" parent="1">
          <mxGeometry x="160" y="430" width="120" height="40" as="geometry" />
        </mxCell>
        <mxCell id="WGWrT0Vk8PtkWykexaRk-5" value="Kriterium for Ã¥ tolke funnene" style="rounded=0;whiteSpace=wrap;html=1;fontColor=#808080;strokeColor=#808080;" vertex="1" parent="1">
          <mxGeometry x="160" y="480" width="120" height="40" as="geometry" />
        </mxCell>
        <mxCell id="WGWrT0Vk8PtkWykexaRk-9" value="1" style="rounded=0;whiteSpace=wrap;html=1;fontColor=#808080;strokeColor=#808080;" vertex="1" parent="1">
          <mxGeometry x="120" y="280" width="40" height="40" as="geometry" />
        </mxCell>
        <mxCell id="WGWrT0Vk8PtkWykexaRk-10" value="2" style="rounded=0;whiteSpace=wrap;html=1;fontColor=#808080;strokeColor=#808080;" vertex="1" parent="1">
          <mxGeometry x="120" y="330" width="40" height="40" as="geometry" />
        </mxCell>
        <mxCell id="WGWrT0Vk8PtkWykexaRk-11" value="3" style="rounded=0;whiteSpace=wrap;html=1;fontColor=#808080;strokeColor=#808080;" vertex="1" parent="1">
          <mxGeometry x="120" y="380" width="40" height="40" as="geometry" />
        </mxCell>
        <mxCell id="WGWrT0Vk8PtkWykexaRk-12" value="4" style="rounded=0;whiteSpace=wrap;html=1;fontColor=#808080;strokeColor=#808080;" vertex="1" parent="1">
          <mxGeometry x="120" y="430" width="40" height="40" as="geometry" />
        </mxCell>
        <mxCell id="WGWrT0Vk8PtkWykexaRk-13" value="5" style="rounded=0;whiteSpace=wrap;html=1;fontColor=#808080;strokeColor=#808080;" vertex="1" parent="1">
          <mxGeometry x="120" y="480" width="40" height="40" as="geometry" />
        </mxCell>
      </root>
    </mxGraphModel>
  </diagram>
</mxfile>
